<?xml version="1.0" encoding="UTF-8"?>
<svg version="1.1" xmlns="http://www.w3.org/2000/svg" width="128" height="128">
<path d="M0 0 C4.00601964 1.4153372 8.06273696 1.32817737 12.27929688 1.46484375 C17.34105758 1.69652633 17.34105758 1.69652633 19.54296875 3.8984375 C19.66778622 5.89551708 19.71867075 7.89749596 19.73046875 9.8984375 C20.11406362 16.25913793 21.79030775 19.38480949 25.69140625 24.28125 C33.46021175 35.26247296 34.72725968 48.88299201 33.54296875 61.8984375 C32.31063323 66.83362005 30.34875393 70.68975973 27.54296875 74.8984375 C28.20296875 74.8984375 28.86296875 74.8984375 29.54296875 74.8984375 C29.54296875 75.8884375 29.54296875 76.8784375 29.54296875 77.8984375 C28.88296875 77.8984375 28.22296875 77.8984375 27.54296875 77.8984375 C27.04796875 79.3834375 27.04796875 79.3834375 26.54296875 80.8984375 C25.55296875 80.8984375 24.56296875 80.8984375 23.54296875 80.8984375 C23.54296875 80.2384375 23.54296875 79.5784375 23.54296875 78.8984375 C21.56296875 80.2184375 19.58296875 81.5384375 17.54296875 82.8984375 C18.53296875 83.8884375 19.52296875 84.8784375 20.54296875 85.8984375 C19.49421877 88.52031244 18.89365562 89.69215111 16.41796875 91.1484375 C15.48984375 91.5196875 15.48984375 91.5196875 14.54296875 91.8984375 C12.98046875 90.6484375 12.98046875 90.6484375 11.54296875 88.8984375 C11.91796875 86.7734375 11.91796875 86.7734375 12.54296875 84.8984375 C12.21296875 84.5684375 11.88296875 84.2384375 11.54296875 83.8984375 C9.99609375 84.3934375 9.99609375 84.3934375 8.41796875 84.8984375 C5.05870166 85.8699567 2.05190673 86.06960521 -1.45703125 85.8984375 C-1.51761719 86.53652344 -1.57820313 87.17460938 -1.640625 87.83203125 C-1.72441406 88.65832031 -1.80820313 89.48460938 -1.89453125 90.3359375 C-1.97574219 91.15964844 -2.05695313 91.98335938 -2.140625 92.83203125 C-2.45703125 94.8984375 -2.45703125 94.8984375 -3.45703125 95.8984375 C-5.13887073 96.13130758 -6.82827285 96.31107916 -8.51953125 96.4609375 C-9.43863281 96.54472656 -10.35773438 96.62851563 -11.3046875 96.71484375 C-12.01496094 96.77542969 -12.72523437 96.83601563 -13.45703125 96.8984375 C-13.41578125 97.7646875 -13.37453125 98.6309375 -13.33203125 99.5234375 C-13.46198526 103.03219589 -14.28780232 105.61170737 -15.45703125 108.8984375 C-16.01688721 108.92349365 -16.57674316 108.9485498 -17.15356445 108.97436523 C-19.6924443 109.09047495 -22.23096678 109.2131333 -24.76953125 109.3359375 C-25.65060547 109.37525391 -26.53167969 109.41457031 -27.43945312 109.45507812 C-28.28701172 109.49697266 -29.13457031 109.53886719 -30.0078125 109.58203125 C-30.78809814 109.61868896 -31.56838379 109.65534668 -32.37231445 109.69311523 C-34.65032226 109.83969013 -34.65032226 109.83969013 -37.45703125 110.8984375 C-51.20155254 112.17955134 -60.96781448 108.4400332 -71.7890625 100.1328125 C-83.02902126 90.71955275 -93.16720115 79.83548872 -94.68457031 64.61621094 C-95.70323949 48.37516455 -92.62113931 35.55431282 -83.45703125 21.8984375 C-82.79703125 21.2384375 -82.13703125 20.5784375 -81.45703125 19.8984375 C-81.20205716 17.2096198 -81.03710098 14.59254856 -80.95703125 11.8984375 C-80.72730152 4.16870777 -80.72730152 4.16870777 -78.45703125 1.8984375 C-76.61621094 1.65893555 -76.61621094 1.65893555 -74.37890625 1.66015625 C-73.1415271 1.64082031 -73.1415271 1.64082031 -71.87915039 1.62109375 C-70.99735107 1.60949219 -70.11555176 1.59789062 -69.20703125 1.5859375 C-61.13283414 1.3541077 -54.79356105 0.18490925 -47.3046875 -2.9453125 C-33.38434798 -8.59746682 -13.43696843 -6.02420524 0 0 Z " fill="#D6F6ED" transform="translate(94.45703125,11.1015625)"/>
<path d="M0 0 C0.71353638 0.00202423 1.42707275 0.00404846 2.16223145 0.00613403 C2.89091431 0.00517731 3.61959717 0.00422058 4.37036133 0.00323486 C5.91377855 0.00255318 7.45719861 0.00440666 9.00061035 0.00857544 C11.37095544 0.01392391 13.74111104 0.00863011 16.1114502 0.00222778 C17.60754437 0.00288857 19.10363842 0.00416973 20.59973145 0.00613403 C21.31326782 0.0041098 22.0268042 0.00208557 22.76196289 0 C27.76602953 0.02399462 27.76602953 0.02399462 28.88098145 1.13894653 C28.95278109 2.65822691 28.96490152 4.18062135 28.94348145 5.70144653 C28.93445801 6.5277356 28.92543457 7.35402466 28.9161377 8.20535278 C28.90453613 8.84343872 28.89293457 9.48152466 28.88098145 10.13894653 C29.54098145 9.80894653 30.20098145 9.47894653 30.88098145 9.13894653 C34.77031667 8.69697662 36.59692412 8.98299349 40.06848145 10.88894653 C45.67167912 15.37150467 45.67167912 15.37150467 46.1270752 19.21707153 C46.25431467 23.73781506 45.72815665 26.96624397 43.88098145 31.13894653 C45.08496582 31.11574341 46.2889502 31.09254028 47.52941895 31.06863403 C49.10493359 31.04987791 50.68045493 31.03167754 52.25598145 31.01394653 C53.05004395 30.99718872 53.84410645 30.98043091 54.66223145 30.96316528 C56.7359016 30.94559181 58.80981386 31.03559486 60.88098145 31.13894653 C62.88098145 33.13894653 62.88098145 33.13894653 63.07629395 35.95925903 C63.05309082 37.04980591 63.0298877 38.14035278 63.00598145 39.26394653 C62.98793457 40.35964966 62.9698877 41.45535278 62.95129395 42.58425903 C62.92809082 43.42730591 62.9048877 44.27035278 62.88098145 45.13894653 C63.82973145 45.24207153 64.77848145 45.34519653 65.75598145 45.45144653 C68.88098145 46.13894653 68.88098145 46.13894653 70.88098145 49.13894653 C71.19352523 51.86178558 71.01431573 54.38337139 70.88098145 57.13894653 C69.88098145 58.13894653 69.88098145 58.13894653 66.31848145 58.20144653 C65.18410645 58.18082153 64.04973145 58.16019653 62.88098145 58.13894653 C62.88098145 59.78894653 62.88098145 61.43894653 62.88098145 63.13894653 C64.86098145 63.13894653 66.84098145 63.13894653 68.88098145 63.13894653 C68.88098145 63.46894653 68.88098145 63.79894653 68.88098145 64.13894653 C66.90098145 64.13894653 64.92098145 64.13894653 62.88098145 64.13894653 C62.82039551 64.77703247 62.75980957 65.41511841 62.6973877 66.07254028 C62.61359863 66.89882935 62.52980957 67.72511841 62.44348145 68.57644653 C62.36227051 69.40015747 62.28105957 70.22386841 62.1973877 71.07254028 C61.88098145 73.13894653 61.88098145 73.13894653 60.88098145 74.13894653 C59.19914197 74.37181661 57.50973985 74.55158819 55.81848145 74.70144653 C54.89937988 74.7852356 53.98027832 74.86902466 53.0333252 74.95535278 C52.32305176 75.01593872 51.61277832 75.07652466 50.88098145 75.13894653 C50.92223145 76.00519653 50.96348145 76.87144653 51.00598145 77.76394653 C50.88098145 81.13894653 50.88098145 81.13894653 48.88098145 87.13894653 C43.27098145 87.13894653 37.66098145 87.13894653 31.88098145 87.13894653 C33.53098145 85.81894653 35.18098145 84.49894653 36.88098145 83.13894653 C35.09240723 83.06546997 35.09240723 83.06546997 33.2677002 82.99050903 C31.70127077 82.9154705 30.13486566 82.83992313 28.56848145 82.76394653 C27.78279785 82.73300903 26.99711426 82.70207153 26.18762207 82.67019653 C25.43029785 82.63152466 24.67297363 82.59285278 23.8927002 82.55300903 C22.84795532 82.50587769 22.84795532 82.50587769 21.78210449 82.45779419 C19.88098145 82.13894653 19.88098145 82.13894653 16.88098145 80.13894653 C16.69348145 77.51394653 16.69348145 77.51394653 16.88098145 75.13894653 C19.35598145 74.64394653 19.35598145 74.64394653 21.88098145 74.13894653 C21.88098145 72.48894653 21.88098145 70.83894653 21.88098145 69.13894653 C20.90516113 69.16214966 19.92934082 69.18535278 18.9239502 69.20925903 C17.01549316 69.23632935 17.01549316 69.23632935 15.06848145 69.26394653 C13.80391113 69.28714966 12.53934082 69.31035278 11.2364502 69.33425903 C7.88098145 69.13894653 7.88098145 69.13894653 4.88098145 67.13894653 C4.5880127 64.97488403 4.5880127 64.97488403 4.69348145 62.51394653 C4.72055176 61.69668091 4.74762207 60.87941528 4.7755127 60.03738403 C4.82771973 59.09765747 4.82771973 59.09765747 4.88098145 58.13894653 C2.57098145 58.13894653 0.26098145 58.13894653 -2.11901855 58.13894653 C-2.44901855 56.48894653 -2.77901855 54.83894653 -3.11901855 53.13894653 C-4.27530762 53.17375122 -4.27530762 53.17375122 -5.45495605 53.20925903 C-6.45784668 53.22730591 -7.4607373 53.24535278 -8.49401855 53.26394653 C-9.49175293 53.28714966 -10.4894873 53.31035278 -11.51745605 53.33425903 C-14.11901855 53.13894653 -14.11901855 53.13894653 -16.11901855 51.13894653 C-16.35952759 49.11413574 -16.35952759 49.11413574 -16.34606934 46.59744263 C-16.34591827 45.65661835 -16.34576721 44.71579407 -16.34561157 43.74645996 C-16.335289 42.7287149 -16.32496643 41.71096985 -16.31433105 40.66238403 C-16.31150116 39.62199982 -16.30867126 38.5816156 -16.30575562 37.50970459 C-16.29453559 34.17766959 -16.2694277 30.84590067 -16.24401855 27.51394653 C-16.23399111 25.25874207 -16.22486485 23.00353341 -16.2166748 20.74832153 C-16.19459034 15.21177199 -16.16109494 9.67537827 -16.11901855 4.13894653 C-15.12901855 4.13894653 -14.13901855 4.13894653 -13.11901855 4.13894653 C-13.11901855 19.31894653 -13.11901855 34.49894653 -13.11901855 50.13894653 C-9.48901855 50.13894653 -5.85901855 50.13894653 -2.11901855 50.13894653 C-1.45901855 48.81894653 -0.79901855 47.49894653 -0.11901855 46.13894653 C2.50598145 45.38894653 2.50598145 45.38894653 4.88098145 45.13894653 C4.88098145 43.81894653 4.88098145 42.49894653 4.88098145 41.13894653 C4.25449707 41.16214966 3.6280127 41.18535278 2.98254395 41.20925903 C2.16527832 41.22730591 1.3480127 41.24535278 0.50598145 41.26394653 C-0.30612793 41.28714966 -1.1182373 41.31035278 -1.95495605 41.33425903 C-4.11901855 41.13894653 -4.11901855 41.13894653 -6.11901855 39.13894653 C-6.30662886 36.28180189 -6.37459173 33.52328667 -6.3494873 30.66629028 C-6.34879997 29.40891808 -6.34879997 29.40891808 -6.34809875 28.12614441 C-6.3450758 26.35329778 -6.33718818 24.58045383 -6.3248291 22.80764771 C-6.3065692 20.08400131 -6.30431941 17.36069462 -6.30456543 14.63699341 C-6.29965047 12.91758941 -6.29382225 11.19818772 -6.2869873 9.47879028 C-6.28587448 8.65902206 -6.28476166 7.83925385 -6.28361511 6.99464417 C-6.22470371 0.0298476 -6.22470371 0.0298476 0 0 Z " fill="#3135C5" transform="translate(30.1190185546875,32.861053466796875)"/>
<path d="M0 0 C2 2 2 2 2.23377991 4.16993713 C2.22632248 5.06848923 2.21886505 5.96704132 2.21118164 6.89282227 C2.20780289 7.91050186 2.20442413 8.92818146 2.20094299 9.97669983 C2.18748337 11.07880295 2.17402374 12.18090607 2.16015625 13.31640625 C2.15495468 14.44320297 2.14975311 15.56999969 2.14439392 16.73094177 C2.12652894 20.34159014 2.09534271 23.95195915 2.0625 27.5625 C2.03494449 31.17658426 2.01023798 34.79062987 1.99131775 38.4047699 C1.97899652 40.65729857 1.96133197 42.90980513 1.93800354 45.1622467 C1.93147263 46.17677414 1.92494171 47.19130157 1.91821289 48.23657227 C1.90995987 49.13432877 1.90170685 50.03208527 1.89320374 50.95704651 C1.77121151 52.99428774 1.77121151 52.99428774 3 54 C4.84891946 54.23363881 6.70488031 54.41303635 8.5625 54.5625 C9.57441406 54.64628906 10.58632813 54.73007813 11.62890625 54.81640625 C12.80259766 54.90728516 12.80259766 54.90728516 14 55 C14.33 56.65 14.66 58.3 15 60 C17.31 60 19.62 60 22 60 C22.04898438 60.63808594 22.09796875 61.27617188 22.1484375 61.93359375 C22.22320312 62.75988281 22.29796875 63.58617187 22.375 64.4375 C22.47941406 65.67306641 22.47941406 65.67306641 22.5859375 66.93359375 C22.79089844 67.95646484 22.79089844 67.95646484 23 69 C25.9615696 70.4807848 28.83506295 70.35314037 32.125 70.5625 C34.04699219 70.68818359 34.04699219 70.68818359 36.0078125 70.81640625 C36.99523438 70.87699219 37.98265625 70.93757813 39 71 C39 72.65 39 74.3 39 76 C37.02 76.495 37.02 76.495 35 77 C35 78.65 35 80.3 35 82 C37.23647631 83.11823815 38.64891529 83.19396061 41.1328125 83.31640625 C41.93847656 83.35830078 42.74414062 83.40019531 43.57421875 83.44335938 C44.41597656 83.48267578 45.25773437 83.52199219 46.125 83.5625 C47.39923828 83.62727539 47.39923828 83.62727539 48.69921875 83.69335938 C50.79928223 83.79954236 52.89961948 83.90028497 55 84 C49.50136471 89.71102892 45.14818776 91.18899144 37.3125 91.5 C21.66858655 91.10227339 9.66670375 81.37048235 -0.77734375 70.49609375 C-11.0436566 58.96678987 -13.91563113 47.01192318 -13.37890625 31.84765625 C-12.67568771 20.49255059 -8.17630974 8.17630974 0 0 Z " fill="#F7F9FE" transform="translate(13,31)"/>
<path d="M0 0 C17.16 0 34.32 0 52 0 C52 10.23 52 20.46 52 31 C51.34 31 50.68 31 50 31 C49.34 29.02 48.68 27.04 48 25 C44.7 24.67 41.4 24.34 38 24 C38 21.69 38 19.38 38 17 C30.41 17 22.82 17 15 17 C14.67 19.31 14.34 21.62 14 24 C9.05 24.495 9.05 24.495 4 25 C3.34 26.98 2.68 28.96 2 31 C1.34 31 0.68 31 0 31 C0 20.77 0 10.54 0 0 Z " fill="#4369FB" transform="translate(38,67)"/>
<path d="M0 0 C0.71353638 0.00202423 1.42707275 0.00404846 2.16223145 0.00613403 C2.89091431 0.00517731 3.61959717 0.00422058 4.37036133 0.00323486 C5.91377855 0.00255318 7.45719861 0.00440666 9.00061035 0.00857544 C11.37095544 0.01392391 13.74111104 0.00863011 16.1114502 0.00222778 C17.60754437 0.00288857 19.10363842 0.00416973 20.59973145 0.00613403 C21.31326782 0.0041098 22.0268042 0.00208557 22.76196289 0 C27.76602953 0.02399462 27.76602953 0.02399462 28.88098145 1.13894653 C29.31190853 4.5186461 29.38125692 7.76612159 28.88098145 11.13894653 C26.44348145 13.63894653 26.44348145 13.63894653 23.88098145 15.13894653 C22.65093163 17.59904616 22.74784117 19.27067459 22.75598145 22.01394653 C22.75340332 22.87761841 22.7508252 23.74129028 22.74816895 24.63113403 C22.8712069 26.95438011 23.28435469 28.90233682 23.88098145 31.13894653 C22.05760254 31.22982544 22.05760254 31.22982544 20.1973877 31.32254028 C18.61273917 31.40692985 17.02810443 31.49157864 15.44348145 31.57644653 C14.23981934 31.63542114 14.23981934 31.63542114 13.01184082 31.69558716 C9.12858584 31.54437613 9.12858584 31.54437613 5.88098145 33.13894653 C5.65023062 34.48641738 5.46945082 35.84272218 5.31848145 37.20144653 C5.17410645 38.50082153 5.02973145 39.80019653 4.88098145 41.13894653 C3.4230526 41.1929439 1.96455433 41.2317383 0.50598145 41.26394653 C-0.30612793 41.28714966 -1.1182373 41.31035278 -1.95495605 41.33425903 C-4.11901855 41.13894653 -4.11901855 41.13894653 -6.11901855 39.13894653 C-6.30662886 36.28180189 -6.37459173 33.52328667 -6.3494873 30.66629028 C-6.34902908 29.82804214 -6.34857086 28.98979401 -6.34809875 28.12614441 C-6.3450758 26.35329778 -6.33718818 24.58045383 -6.3248291 22.80764771 C-6.3065692 20.08400131 -6.30431941 17.36069462 -6.30456543 14.63699341 C-6.29965047 12.91758941 -6.29382225 11.19818772 -6.2869873 9.47879028 C-6.28587448 8.65902206 -6.28476166 7.83925385 -6.28361511 6.99464417 C-6.22470371 0.0298476 -6.22470371 0.0298476 0 0 Z " fill="#829AFB" transform="translate(30.1190185546875,32.861053466796875)"/>
<path d="M0 0 C31.02 0 62.04 0 94 0 C94 3.3 94 6.6 94 10 C62.98 10 31.96 10 0 10 C0 6.7 0 3.4 0 0 Z " fill="#07FEB3" transform="translate(17,16)"/>
<path d="M0 0 C4.00601964 1.4153372 8.06273696 1.32817737 12.27929688 1.46484375 C17.34105758 1.69652633 17.34105758 1.69652633 19.54296875 3.8984375 C19.80366516 6.70030212 19.80366516 6.70030212 19.81762695 10.32006836 C19.82273788 10.97878433 19.82784882 11.63750031 19.83311462 12.31617737 C19.8470407 14.49863717 19.84605161 16.68078224 19.84375 18.86328125 C19.84763542 20.3778139 19.85196976 21.89234547 19.85673523 23.40687561 C19.864204 26.58370493 19.86390155 29.76042314 19.85864258 32.93725586 C19.85284835 37.01080408 19.86977422 41.08389755 19.89298725 45.15737057 C19.90771114 48.28604294 19.90859813 51.41460547 19.90547752 54.54330635 C19.90599146 56.04523176 19.91124279 57.5471632 19.92128944 59.0490551 C19.93361048 61.14880886 19.92688928 63.24767286 19.9152832 65.34741211 C19.91591263 66.54273056 19.91654205 67.73804901 19.91719055 68.96958923 C19.54296875 71.8984375 19.54296875 71.8984375 18.25016785 73.79615784 C15.48001913 75.58474746 12.73846946 75.0793149 9.54296875 74.8984375 C9.54296875 73.9084375 9.54296875 72.9184375 9.54296875 71.8984375 C11.85296875 71.8984375 14.16296875 71.8984375 16.54296875 71.8984375 C16.54296875 49.7884375 16.54296875 27.6784375 16.54296875 4.8984375 C-14.47703125 4.8984375 -45.49703125 4.8984375 -77.45703125 4.8984375 C-77.45703125 10.5084375 -77.45703125 16.1184375 -77.45703125 21.8984375 C-78.44703125 21.8984375 -79.43703125 21.8984375 -80.45703125 21.8984375 C-80.51082351 18.93986341 -80.55060218 15.98226029 -80.58203125 13.0234375 C-80.59878906 12.18167969 -80.61554688 11.33992188 -80.6328125 10.47265625 C-80.63925781 9.66699219 -80.64570312 8.86132812 -80.65234375 8.03125 C-80.66281738 7.28762207 -80.67329102 6.54399414 -80.68408203 5.77783203 C-80.45703125 3.8984375 -80.45703125 3.8984375 -78.45703125 1.8984375 C-76.61621094 1.65893555 -76.61621094 1.65893555 -74.37890625 1.66015625 C-73.1415271 1.64082031 -73.1415271 1.64082031 -71.87915039 1.62109375 C-70.99735107 1.60949219 -70.11555176 1.59789062 -69.20703125 1.5859375 C-61.13283414 1.3541077 -54.79356105 0.18490925 -47.3046875 -2.9453125 C-33.38434798 -8.59746682 -13.43696843 -6.02420524 0 0 Z " fill="#2B36BE" transform="translate(94.45703125,11.1015625)"/>
<path d="M0 0 C5.41990385 5.41990385 7.96415792 10.09956586 11 17 C11.34546875 17.78246094 11.6909375 18.56492187 12.046875 19.37109375 C15.51640586 28.81410934 15.80677041 41.54691704 12.125 50.9375 C10.91210445 53.48458067 9.57352388 55.63971419 8 58 C8.66 58 9.32 58 10 58 C10 58.99 10 59.98 10 61 C9.34 61 8.68 61 8 61 C7.67 61.99 7.34 62.98 7 64 C6.01 64 5.02 64 4 64 C4 63.34 4 62.68 4 62 C2.02 63.32 0.04 64.64 -2 66 C-1.01 66.99 -0.02 67.98 1 69 C-0.04874998 71.62187494 -0.64931313 72.79371361 -3.125 74.25 C-3.74375 74.4975 -4.3625 74.745 -5 75 C-6.5625 73.75 -6.5625 73.75 -8 72 C-7.625 69.875 -7.625 69.875 -7 68 C-7.33 67.67 -7.66 67.34 -8 67 C-10.19050021 67.09017996 -12.378466 67.24666208 -14.5625 67.4375 C-15.76003906 67.53933594 -16.95757812 67.64117187 -18.19140625 67.74609375 C-19.11824219 67.82988281 -20.04507813 67.91367188 -21 68 C-21 66.35 -21 64.7 -21 63 C-17.535 62.505 -17.535 62.505 -14 62 C-13.505 59.03 -13.505 59.03 -13 56 C-12.01 56 -11.02 56 -10 56 C-10 56.66 -10 57.32 -10 58 C-5.545 57.505 -5.545 57.505 -1 57 C-0.67 38.19 -0.34 19.38 0 0 Z " fill="#C1CCFD" transform="translate(114,28)"/>
<path d="M0 0 C3.76115969 2.06495042 7.09650288 4.08725592 9 8 C9.61732352 13.21295415 9.13221146 17.18341075 7 22 C8.20398438 21.97679688 9.40796875 21.95359375 10.6484375 21.9296875 C12.22395215 21.91093137 13.79947348 21.89273101 15.375 21.875 C16.1690625 21.85824219 16.963125 21.84148438 17.78125 21.82421875 C19.85492015 21.80664527 21.92883241 21.89664832 24 22 C26 24 26 24 26.1953125 26.8203125 C26.17210937 27.91085938 26.14890625 29.00140625 26.125 30.125 C26.10695312 31.22070312 26.08890625 32.31640625 26.0703125 33.4453125 C26.04710937 34.28835937 26.02390625 35.13140625 26 36 C27.32 36 28.64 36 30 36 C30 36.66 30 37.32 30 38 C28.35 38 26.7 38 25 38 C25 40.97 25 43.94 25 47 C24.67 47 24.34 47 24 47 C24 39.74 24 32.48 24 25 C6.18 25 -11.64 25 -30 25 C-30 31.93 -30 38.86 -30 46 C-30.33 46 -30.66 46 -31 46 C-31 43.36 -31 40.72 -31 38 C-32.32 37.67 -33.64 37.34 -35 37 C-33.515 36.505 -33.515 36.505 -32 36 C-32.02320313 35.15695313 -32.04640625 34.31390625 -32.0703125 33.4453125 C-32.08835938 32.34960938 -32.10640625 31.25390625 -32.125 30.125 C-32.14820313 29.03445312 -32.17140625 27.94390625 -32.1953125 26.8203125 C-32 24 -32 24 -30 22 C-27.0906442 21.85482256 -24.280054 21.81369204 -21.375 21.875 C-20.57320312 21.88402344 -19.77140625 21.89304687 -18.9453125 21.90234375 C-16.96341477 21.92593777 -14.98167019 21.96180935 -13 22 C-13.32097656 21.44054687 -13.64195313 20.88109375 -13.97265625 20.3046875 C-15.75891872 16.29748272 -15.67020013 12.2919887 -15 8 C-13.35016663 4.77920975 -11.01261323 2.71862875 -8.0625 0.625 C-5.15227888 -0.25688519 -3.03383286 -0.36405994 0 0 Z " fill="#2E32C3" transform="translate(67,42)"/>
<path d="M0 0 C2 2 2 2 2.24050903 4.3664856 C2.23606781 5.35687836 2.23162659 6.34727112 2.22705078 7.36767578 C2.22682419 9.04919235 2.22682419 9.04919235 2.22659302 10.76467896 C2.21627045 11.97928802 2.20594788 13.19389709 2.1953125 14.4453125 C2.1924826 15.68546112 2.18965271 16.92560974 2.18673706 18.20333862 C2.17742174 21.50124633 2.1594489 24.79895972 2.1373291 28.09680176 C2.11687474 31.4616457 2.10773623 34.82651807 2.09765625 38.19140625 C2.07556519 44.79434723 2.04206483 51.39715771 2 58 C1.52292099 57.58704178 1.04584198 57.17408356 0.55430603 56.74861145 C-0.07342209 56.20742172 -0.70115021 55.66623199 -1.34790039 55.10864258 C-1.9693544 54.57193436 -2.59080841 54.03522614 -3.23109436 53.48225403 C-5.06905116 51.90343252 -5.06905116 51.90343252 -7.43359375 50.26171875 C-11.28730411 47.23434004 -12.82039265 45.06893585 -13.64453125 40.1640625 C-14.3612826 25.92025838 -9.8957652 13.76585701 -2 2 C-1.34 1.34 -0.68 0.68 0 0 Z " fill="#EAEEFE" transform="translate(13,31)"/>
<path d="M0 0 C5.94 0 11.88 0 18 0 C18 6.93 18 13.86 18 21 C12.06 21 6.12 21 0 21 C0 14.07 0 7.14 0 0 Z " fill="#B0BEFE" transform="translate(55,86)"/>
<path d="M0 0 C7.26 0 14.52 0 22 0 C22 7.92 22 15.84 22 24 C20.68 24 19.36 24 18 24 C17.67 22.68 17.34 21.36 17 20 C14.10765685 19.17361624 12.11257569 19 9 19 C7.26171875 17.609375 7.26171875 17.609375 5.6875 15.75 C4.88892578 14.84507813 4.88892578 14.84507813 4.07421875 13.921875 C3 12 3 12 3.33203125 9.953125 C3.55246094 9.30859375 3.77289063 8.6640625 4 8 C4 7.01 4 6.02 4 5 C2.68 5 1.36 5 0 5 C0 3.35 0 1.7 0 0 Z " fill="#FE81B8" transform="translate(89,26)"/>
<path d="M0 0 C3 1.875 3 1.875 5 5 C5.73467552 9.37273217 5.88712612 13.26457819 3.83984375 17.26953125 C1.27474148 19.68214337 -0.45834143 19.5991966 -3.9375 19.625 C-9.54410184 19.43517551 -9.54410184 19.43517551 -12.75 16.375 C-14.07970361 12.78480026 -14.62868959 10.77213756 -14 7 C-10.39141792 0.62483832 -7.37455575 -1.18444108 0 0 Z " fill="#F9A2CD" transform="translate(68,45)"/>
<path d="M0 0 C0 0.33 0 0.66 0 1 C-20.13 1 -40.26 1 -61 1 C-58.53463498 -1.46536502 -56.49471352 -1.99000042 -53.1875 -3.0625 C-52.14980469 -3.40410156 -51.11210938 -3.74570313 -50.04296875 -4.09765625 C-33.74015789 -8.93199426 -15.48187997 -6.50942681 0 0 Z " fill="#C1CDFF" transform="translate(97,12)"/>
<path d="M0 0 C5.66510676 2.54863777 11.07659931 6.39447169 14 12 C15.47796691 18.2126697 15.22136534 24.65853397 15 31 C14.54616943 30.60530518 14.09233887 30.21061035 13.62475586 29.80395508 C9.69611097 26.40693054 9.69611097 26.40693054 5.56640625 23.26171875 C2.55582289 20.89667958 0.32641865 18.8948763 -0.34814453 14.97900391 C-0.69204443 9.96280886 -0.4094481 5.00436568 0 0 Z " fill="#F5F6FF" transform="translate(0,58)"/>
<path d="M0 0 C6.03331362 4.98404168 11.5184171 10.41915303 17 16 C16.34 16.33 15.68 16.66 15 17 C17.31232422 19.56249975 17.31232422 19.56249975 20 22 C20.99 22 21.98 22 23 22 C25 24 25 24 25.125 27.125 C25.08375 28.07375 25.0425 29.0225 25 30 C25.7425 30.12375 26.485 30.2475 27.25 30.375 C31.82910743 31.41570623 34.50814191 33.25845506 37.75 36.625 C38.36359375 37.25664063 38.9771875 37.88828125 39.609375 38.5390625 C40.29773437 39.26222656 40.29773437 39.26222656 41 40 C40.01 40.495 40.01 40.495 39 41 C23.58967776 35.43337035 10.25576226 23.20260979 2.625 8.75 C1.27989545 5.87584497 0.39641631 3.17133049 0 0 Z " fill="#F8FEFE" transform="translate(1,80)"/>
<path d="M0 0 C10.89 0 21.78 0 33 0 C33 1.98 33 3.96 33 6 C22.11 6 11.22 6 0 6 C0 4.02 0 2.04 0 0 Z " fill="#6582FC" transform="translate(25,33)"/>
<path d="M0 0 C4.91935902 4.11619836 9.52647956 8.40410362 14 13 C14.66 12.01 15.32 11.02 16 10 C21.445 10.495 21.445 10.495 27 11 C27.33 12.65 27.66 14.3 28 16 C24.04 16.495 24.04 16.495 20 17 C21.65 18.65 23.3 20.3 25 22 C23.63016497 25.16115776 23.0109362 25.9927092 20 28 C19.67 27.01 19.34 26.02 19 25 C18.01 24.67 17.02 24.34 16 24 C16 22.68 16 21.36 16 20 C14.64764219 18.16139858 14.64764219 18.16139858 12.75390625 16.50390625 C12.08166016 15.86259766 11.40941406 15.22128906 10.71679688 14.56054688 C9.28464646 13.23226956 7.85235558 11.90414368 6.41992188 10.57617188 C5.40961914 9.61227539 5.40961914 9.61227539 4.37890625 8.62890625 C3.44413452 7.7637439 3.44413452 7.7637439 2.49047852 6.88110352 C0.69847433 4.6194504 0.35977903 2.83170124 0 0 Z " fill="#F6F6FE" transform="translate(0,75)"/>
<path d="M0 0 C4.29 0 8.58 0 13 0 C13.1953125 2.31119792 13.390625 4.62239583 13.5859375 6.93359375 C13.72257812 7.61550781 13.85921875 8.29742187 14 9 C16.9615696 10.4807848 19.83506295 10.35314037 23.125 10.5625 C24.40632813 10.64628906 25.68765625 10.73007813 27.0078125 10.81640625 C27.99523437 10.87699219 28.98265625 10.93757813 30 11 C30 12.65 30 14.3 30 16 C24.00542709 17.14789694 18.10487935 18.07130877 12.81738281 14.54394531 C8.1147795 10.50674438 3.76591145 5.92837929 0 1 C0 0.67 0 0.34 0 0 Z " fill="#F4F4FE" transform="translate(22,91)"/>
<path d="M0 0 C0.99 0 1.98 0 3 0 C3.33 15.18 3.66 30.36 4 46 C6.64 46.33 9.28 46.66 12 47 C12 47.33 12 47.66 12 48 C10.18757948 48.02687279 8.37504767 48.04633715 6.5625 48.0625 C5.55316406 48.07410156 4.54382813 48.08570313 3.50390625 48.09765625 C1 48 1 48 0 47 C-0.09304018 45.52645652 -0.11746265 44.04849409 -0.11352539 42.57202148 C-0.11344986 41.63112167 -0.11337433 40.69022186 -0.11329651 39.72080994 C-0.10813522 38.69790359 -0.10297394 37.67499725 -0.09765625 36.62109375 C-0.0962413 35.57929459 -0.09482635 34.53749542 -0.09336853 33.46412659 C-0.0877508 30.12188906 -0.0751953 26.77971743 -0.0625 23.4375 C-0.05748728 21.17773534 -0.05292398 18.91796963 -0.04882812 16.65820312 C-0.03777561 11.10544609 -0.02102024 5.55272775 0 0 Z " fill="#3739C1" transform="translate(14,37)"/>
<path d="M0 0 C0.99 0.33 1.98 0.66 3 1 C3.06949924 8.24961654 3.12281062 15.4991613 3.15543652 22.74904346 C3.17109511 26.11544877 3.19233621 29.48162623 3.22631836 32.84790039 C3.26261749 36.71767249 3.2797075 40.58712026 3.29296875 44.45703125 C3.30845261 45.66647903 3.32393646 46.87592682 3.33988953 48.12202454 C3.34022942 49.80342781 3.34022942 49.80342781 3.34057617 51.51879883 C3.34723801 52.50697098 3.35389984 53.49514313 3.36076355 54.51325989 C3 57 3 57 1.70918274 58.83085632 C-1.04593354 60.7154569 -3.77139779 60.18275107 -7 60 C-7 59.01 -7 58.02 -7 57 C-4.69 57 -2.38 57 0 57 C0 38.19 0 19.38 0 0 Z " fill="#4E4FC8" transform="translate(111,26)"/>
<path d="M0 0 C1.65 0.66 3.3 1.32 5 2 C5.96205088 8.37358711 6.10655578 14.55929529 6 21 C5.34 21.33 4.68 21.66 4 22 C4 19.03 4 16.06 4 13 C1.69 13 -0.62 13 -3 13 C-3.33 11.35 -3.66 9.7 -4 8 C-7.63 8 -11.26 8 -15 8 C-14.34 7.01 -13.68 6.02 -13 5 C-10.6171875 4.70703125 -10.6171875 4.70703125 -7.875 4.8125 C-6.96492188 4.83957031 -6.05484375 4.86664063 -5.1171875 4.89453125 C-4.41851562 4.92933594 -3.71984375 4.96414062 -3 5 C-2.690625 4.360625 -2.38125 3.72125 -2.0625 3.0625 C-1 1 -1 1 0 0 Z " fill="#3331BE" transform="translate(31,78)"/>
<path d="M0 0 C6.29206411 1.32309759 9.59153315 5.09225408 13.875 9.5625 C14.56335938 10.26052734 15.25171875 10.95855469 15.9609375 11.67773438 C21 16.83177548 21 16.83177548 21 18 C18.3125 18.3125 18.3125 18.3125 15 18 C12.20222818 15.6116582 9.96933424 12.96461643 7.5625 10.1875 C4.42517826 7.50929851 3.00042526 7.73330498 -1 8 C-1.66 7.34 -2.32 6.68 -3 6 C-2.63318342 3.06546739 -2.13562754 2.13562754 0 0 Z " fill="#F6F6FF" transform="translate(28,104)"/>
<path d="M0 0 C0.33 0 0.66 0 1 0 C1 2.31 1 4.62 1 7 C1.69867188 6.97679688 2.39734375 6.95359375 3.1171875 6.9296875 C4.02726562 6.91164063 4.93734375 6.89359375 5.875 6.875 C6.77992187 6.85179688 7.68484375 6.82859375 8.6171875 6.8046875 C11 7 11 7 13 9 C13.125 11.625 13.125 11.625 13 14 C13.66 14.33 14.32 14.66 15 15 C10.05 15 5.1 15 0 15 C0 10.05 0 5.1 0 0 Z " fill="#2E55DE" transform="translate(75,84)"/>
<path d="M0 0 C0.33 0 0.66 0 1 0 C1 4.95 1 9.9 1 15 C-3.95 15 -8.9 15 -14 15 C-13.34 14.67 -12.68 14.34 -12 14 C-12.04125 13.21625 -12.0825 12.4325 -12.125 11.625 C-12 9 -12 9 -10 7 C-7.6171875 6.8046875 -7.6171875 6.8046875 -4.875 6.875 C-3.50988281 6.90207031 -3.50988281 6.90207031 -2.1171875 6.9296875 C-1.41851562 6.95289062 -0.71984375 6.97609375 0 7 C0 4.69 0 2.38 0 0 Z " fill="#2E55DE" transform="translate(52,84)"/>
<path d="M0 0 C1.8125 1.125 1.8125 1.125 3 3 C3.39704314 6.17634515 3.49933741 8.14003001 1.875 10.9375 C0 12 0 12 -3.0625 11.875 C-6 11 -6 11 -8 8 C-8.35840349 5.13277207 -8.41121458 3.62764331 -6.8125 1.1875 C-4.35092224 -0.42525784 -2.88934264 -0.4334014 0 0 Z " fill="#2AEEB2" transform="translate(103,63)"/>
<path d="M0 0 C1.62651522 3.25303044 1.11453156 6.39225602 1 10 C0 11 0 11 -3.5625 11.0625 C-4.696875 11.041875 -5.83125 11.02125 -7 11 C-7 12.65 -7 14.3 -7 16 C-7.33 16 -7.66 16 -8 16 C-9.06795656 10.42289352 -8.82622671 5.60563042 -8 0 C-4.71303767 -0.79953138 -3.28976808 -1.09658936 0 0 Z " fill="#4038BF" transform="translate(100,80)"/>
<path d="M0 0 C3.84002931 2.10825138 6.73003778 4.21672964 9 8 C9 8.66 9 9.32 9 10 C8.34 10 7.68 10 7 10 C7 11.98 7 13.96 7 16 C6.67 16 6.34 16 6 16 C5.89042969 15.30132812 5.78085938 14.60265625 5.66796875 13.8828125 C5.50941406 12.97273438 5.35085937 12.06265625 5.1875 11.125 C5.03667969 10.22007813 4.88585937 9.31515625 4.73046875 8.3828125 C4.16948699 5.65587522 4.16948699 5.65587522 1 4 C-4.66432484 3.32731749 -4.66432484 3.32731749 -9.4375 5.875 C-12.06427549 9.44741466 -12.1767766 11.58058493 -12 16 C-11.56058477 18.26566343 -11.56058477 18.26566343 -11 20 C-11.99 20 -12.98 20 -14 20 C-15.86458199 16.27083603 -15.56048286 12.06038696 -15 8 C-13.3611201 4.77468435 -11.01077575 2.71732473 -8.0625 0.625 C-5.15227888 -0.25688519 -3.03383286 -0.36405994 0 0 Z " fill="#3230C0" transform="translate(67,42)"/>
<path d="M0 0 C3.3 0 6.6 0 10 0 C10 3.63 10 7.26 10 11 C3.85350318 9.77070064 3.85350318 9.77070064 1 6 C0.25 2.75 0.25 2.75 0 0 Z " fill="#FEC3DD" transform="translate(101,26)"/>
<path d="M0 0 C6.6 0.33 13.2 0.66 20 1 C15.03320053 5.96679947 15.03320053 5.96679947 10.9609375 6.09765625 C9.18589844 6.08025391 9.18589844 6.08025391 7.375 6.0625 C6.18648437 6.05347656 4.99796875 6.04445313 3.7734375 6.03515625 C2.85820313 6.02355469 1.94296875 6.01195313 1 6 C0.67 4.02 0.34 2.04 0 0 Z " fill="#9B9DE0" transform="translate(48,114)"/>
<path d="M0 0 C5.28 0.33 10.56 0.66 16 1 C16 2.65 16 4.3 16 6 C13.52076199 6.02685095 11.0418116 6.04676547 8.5625 6.0625 C7.85544922 6.07087891 7.14839844 6.07925781 6.41992188 6.08789062 C4.61306441 6.09653588 2.80612397 6.05220011 1 6 C0.67 5.67 0.34 5.34 0 5 C0 3.35 0 1.7 0 0 Z " fill="#A1A3E2" transform="translate(36,101)"/>
<path d="M0 0 C1.32 0 2.64 0 4 0 C4.350625 1.258125 4.70125 2.51625 5.0625 3.8125 C5.9853858 6.34371591 6.51276061 7.66759446 8.7578125 9.19921875 C10.88680095 10.12040525 10.88680095 10.12040525 14 11 C14 12.32 14 13.64 14 15 C10.60678124 14.93213562 7.9733742 14.76017941 5.234375 12.62109375 C1.49718156 8.56642028 0.22380076 5.48311866 0 0 Z " fill="#FEA7CE" transform="translate(97,26)"/>
<path d="M0 0 C3.96 0.33 7.92 0.66 12 1 C12.33 2.65 12.66 4.3 13 6 C11.20866022 6.05391993 9.41686101 6.09275571 7.625 6.125 C6.62726562 6.14820312 5.62953125 6.17140625 4.6015625 6.1953125 C2 6 2 6 0 4 C0 2.68 0 1.36 0 0 Z " fill="#9697DE" transform="translate(15,85)"/>
<path d="M0 0 C2.51570636 0.97382182 3.73944098 1.46151135 4.9375 3.9375 C5 6 5 6 3.8125 7.8125 C2 9 2 9 -0.0625 8.9375 C-2.53848865 7.73944098 -3.02617818 6.51570636 -4 4 C-2.68 2.68 -1.36 1.36 0 0 Z " fill="#FF78BA" transform="translate(7,20)"/>
<path d="M0 0 C2.47598865 1.19805902 2.96367818 2.42179364 3.9375 4.9375 C2.6175 6.2575 1.2975 7.5775 -0.0625 8.9375 C-2.57820636 7.96367818 -3.80194098 7.47598865 -5 5 C-5.0625 2.9375 -5.0625 2.9375 -3.875 1.125 C-2.0625 -0.0625 -2.0625 -0.0625 0 0 Z " fill="#00EBA5" transform="translate(111.0625,94.0625)"/>
<path d="M0 0 C1.9375 0.75 1.9375 0.75 4 2 C4.875 4 4.875 4 5 6 C4.34 6.66 3.68 7.32 3 8 C0.375 7.625 0.375 7.625 -2 7 C-2.6875 5.1875 -2.6875 5.1875 -3 3 C-1.5625 1.25 -1.5625 1.25 0 0 Z " fill="#869BFD" transform="translate(28,104)"/>
<path d="M0 0 C5.30643041 -0.50537432 7.86680312 0.69344249 12 4 C15 7.4 15 7.4 15 10 C14.34 10 13.68 10 13 10 C13 11.98 13 13.96 13 16 C12.67 16 12.34 16 12 16 C11.89042969 15.30132812 11.78085938 14.60265625 11.66796875 13.8828125 C11.50941406 12.97273438 11.35085937 12.06265625 11.1875 11.125 C11.03667969 10.22007813 10.88585937 9.31515625 10.73046875 8.3828125 C10.16948699 5.65587522 10.16948699 5.65587522 7 4 C5.0103005 3.60986284 3.00980131 3.26797351 1 3 C0.67 2.01 0.34 1.02 0 0 Z " fill="#3E3DC1" transform="translate(61,42)"/>
<path d="M0 0 C1.6875 1.5 1.6875 1.5 3 3 C1.63016497 6.16115776 1.0109362 6.9927092 -2 9 C-2.33 8.01 -2.66 7.02 -3 6 C-3.99 5.67 -4.98 5.34 -6 5 C-6 3 -6 3 -4.6875 1.375 C-3 0 -3 0 0 0 Z " fill="#14ECAB" transform="translate(22,94)"/>
<path d="M0 0 C2.31 0 4.62 0 7 0 C7 2.64 7 5.28 7 8 C3.34683329 6.75023244 2.21934164 6.32901247 0 3 C0 2.01 0 1.02 0 0 Z " fill="#DCFAEC" transform="translate(104,26)"/>
<path d="M0 0 C0.99 0 1.98 0 3 0 C3 2.97 3 5.94 3 9 C1.35 9 -0.3 9 -2 9 C-2.125 5.625 -2.125 5.625 -2 2 C-1.34 1.34 -0.68 0.68 0 0 Z " fill="#DF94CB" transform="translate(32,80)"/>
<path d="M0 0 C2.6875 0.875 2.6875 0.875 5 2 C5 2.99 5 3.98 5 5 C4.34 5 3.68 5 3 5 C2.67 5.99 2.34 6.98 2 8 C1.01 8 0.02 8 -1 8 C-1 7.01 -1 6.02 -1 5 C-1.66 5 -2.32 5 -3 5 C-3 4.01 -3 3.02 -3 2 C-2.01 1.34 -1.02 0.68 0 0 Z " fill="#FD7EBB" transform="translate(119,84)"/>
<path d="M0 0 C4.29 0 8.58 0 13 0 C13 1.65 13 3.3 13 5 C12.67 4.34 12.34 3.68 12 3 C8.04 3 4.08 3 0 3 C0 2.01 0 1.02 0 0 Z " fill="#6A85FC" transform="translate(39,51)"/>
<path d="M0 0 C4.29 0 8.58 0 13 0 C13.33 0.99 13.66 1.98 14 3 C9.38 3 4.76 3 0 3 C0 2.01 0 1.02 0 0 Z " fill="#6A85FC" transform="translate(39,58)"/>
<path d="M0 0 C2.31 0 4.62 0 7 0 C7 1.65 7 3.3 7 5 C2.05 5 -2.9 5 -8 5 C-8 4.67 -8 4.34 -8 4 C-4.7 3.67 -1.4 3.34 2 3 C1.34 2.01 0.68 1.02 0 0 Z " fill="#B1B3E8" transform="translate(45,102)"/>
<path d="M0 0 C3.875 0.875 3.875 0.875 5 2 C5.04080783 3.99958364 5.04254356 6.00045254 5 8 C3.35 8 1.7 8 0 8 C0 5.36 0 2.72 0 0 Z " fill="#F7A2CD" transform="translate(93,80)"/>
<path d="M0 0 C0.66 0 1.32 0 2 0 C2.33 0.99 2.66 1.98 3 3 C4.32 3 5.64 3 7 3 C7.33 2.01 7.66 1.02 8 0 C8.66 0 9.32 0 10 0 C9.25 4.75 9.25 4.75 7 7 C3.70285207 6.67028521 2.3773161 6.3773161 0 4 C0 2.68 0 1.36 0 0 Z " fill="#FF82B9" transform="translate(59,56)"/>
<path d="M0 0 C3.96 0 7.92 0 12 0 C12 0.99 12 1.98 12 3 C8.37 3 4.74 3 1 3 C0.67 2.01 0.34 1.02 0 0 Z " fill="#91A9FA" transform="translate(64,33)"/>
<path d="M0 0 C3.96 0 7.92 0 12 0 C11.67 0.99 11.34 1.98 11 3 C7.37 3 3.74 3 0 3 C0 2.01 0 1.02 0 0 Z " fill="#6A85FD" transform="translate(39,44)"/>
<path d="M0 0 C2.62187494 1.04874998 3.79371361 1.64931313 5.25 4.125 C5.4975 4.74375 5.745 5.3625 6 6 C4.71034824 7.37562854 3.37310707 8.70766393 2 10 C1.34 10 0.68 10 0 10 C0.185625 9.0925 0.37125 8.185 0.5625 7.25 C0.95734621 4.31685676 0.94691572 2.7355343 0 0 Z " fill="#B6C7FE" transform="translate(68,70)"/>
<path d="M0 0 C-0.185625 0.9075 -0.37125 1.815 -0.5625 2.75 C-0.95734621 5.68314324 -0.94691572 7.2644657 0 10 C-2.62187494 8.95125002 -3.79371361 8.35068687 -5.25 5.875 C-5.4975 5.25625 -5.745 4.6375 -6 4 C-2.25 0 -2.25 0 0 0 Z " fill="#B8C8FE" transform="translate(60,70)"/>
<path d="M0 0 C1.98 1.65 3.96 3.3 6 5 C5.67 5.66 5.34 6.32 5 7 C2.9375 7.625 2.9375 7.625 1 8 C0.01 6.68 -0.98 5.36 -2 4 C-1.34 2.68 -0.68 1.36 0 0 Z " fill="#F0F3FD" transform="translate(25,98)"/>
<path d="M0 0 C1.98 0 3.96 0 6 0 C6.33 1.65 6.66 3.3 7 5 C4.69 5 2.38 5 0 5 C0 3.35 0 1.7 0 0 Z " fill="#B4BAF0" transform="translate(93,91)"/>
<path d="M0 0 C1.98 0 3.96 0 6 0 C6 1.65 6 3.3 6 5 C4.02 5 2.04 5 0 5 C0 3.35 0 1.7 0 0 Z " fill="#A0A1E1" transform="translate(29,91)"/>
<path d="M0 0 C3.3 0 6.6 0 10 0 C10 0.99 10 1.98 10 3 C6.7 3 3.4 3 0 3 C0 2.01 0 1.02 0 0 Z " fill="#93ABF9" transform="translate(81,58)"/>
<path d="M0 0 C3.3 0 6.6 0 10 0 C8.25 2.0625 8.25 2.0625 6 4 C3.875 3.9375 3.875 3.9375 2 3 C1.34 2.01 0.68 1.02 0 0 Z " fill="#A6A8E4" transform="translate(58,115)"/>
<path d="M0 0 C0 0.99 0 1.98 0 3 C-2.95664519 4.4783226 -5.74229737 4.06032783 -9 4 C-9 3.01 -9 2.02 -9 1 C-2.25 0 -2.25 0 0 0 Z " fill="#393BC3" transform="translate(113,82)"/>
<path d="M0 0 C3 1 3 1 4 3 C4.13415472 5.6723621 4.04318541 8.32250488 4 11 C0.73577293 8.82384862 0.55425796 8.51125915 -0.25 4.9375 C-0.42015625 4.22464844 -0.5903125 3.51179688 -0.765625 2.77734375 C-0.84296875 2.19082031 -0.9203125 1.60429688 -1 1 C-0.67 0.67 -0.34 0.34 0 0 Z " fill="#4646C4" transform="translate(97,79)"/>
<path d="M0 0 C1.65 0 3.3 0 5 0 C5.33 1.65 5.66 3.3 6 5 C3.36 5 0.72 5 -2 5 C-0.68 4.34 0.64 3.68 2 3 C1.34 2.01 0.68 1.02 0 0 Z " fill="#9FA0E2" transform="translate(22,86)"/>
<path d="M0 0 C0.66 0 1.32 0 2 0 C1.38461538 5.53846154 1.38461538 5.53846154 -0.5625 7.875 C-1.036875 8.24625 -1.51125 8.6175 -2 9 C-1.125 1.125 -1.125 1.125 0 0 Z " fill="#C3D1FE" transform="translate(64,71)"/>
<path d="M0 0 C-3.33333333 1.66666667 -6.66666667 3.33333333 -10 5 C-10 4.01 -10 3.02 -10 2 C-6.3558226 -0.4294516 -4.28758728 -0.16179575 0 0 Z " fill="#2A29BC" transform="translate(66,43)"/>
<path d="M0 0 C-0.66 1.32 -1.32 2.64 -2 4 C-3.32 4 -4.64 4 -6 4 C-6 3.01 -6 2.02 -6 1 C-3.92446352 0.4465236 -2.15634036 0 0 0 Z " fill="#11F2BB" transform="translate(36,57)"/>
<path d="M0 0 C-0.66 1.32 -1.32 2.64 -2 4 C-3.32 4 -4.64 4 -6 4 C-6 3.01 -6 2.02 -6 1 C-3.92446352 0.4465236 -2.15634036 0 0 0 Z " fill="#12F2BB" transform="translate(36,50)"/>
<path d="M0 0 C-0.66 1.32 -1.32 2.64 -2 4 C-3.32 4 -4.64 4 -6 4 C-6 3.01 -6 2.02 -6 1 C-3.92446352 0.4465236 -2.15634036 0 0 0 Z " fill="#12F1BB" transform="translate(36,43)"/>
<path d="M0 0 C0.99 0 1.98 0 3 0 C3.33 1.32 3.66 2.64 4 4 C3.34 4 2.68 4 2 4 C2 5.98 2 7.96 2 10 C1.67 10 1.34 10 1 10 C0.67 6.7 0.34 3.4 0 0 Z " fill="#604EC2" transform="translate(72,48)"/>
<path d="M0 0 C1.65 0 3.3 0 5 0 C5.33 0.99 5.66 1.98 6 3 C4.02 3 2.04 3 0 3 C0 2.01 0 1.02 0 0 Z " fill="#5446C0" transform="translate(81,48)"/>
<path d="M0 0 C1.65 0 3.3 0 5 0 C5.33 0.99 5.66 1.98 6 3 C4.02 3 2.04 3 0 3 C0 2.01 0 1.02 0 0 Z " fill="#3451BE" transform="translate(81,42)"/>
</svg>
